<mxfile host="Electron" modified="2024-03-28T14:38:21.784Z" agent="Mozilla/5.0 (X11; Linux x86_64) AppleWebKit/537.36 (KHTML, like Gecko) draw.io/24.1.0 Chrome/120.0.6099.109 Electron/28.1.0 Safari/537.36" etag="SNx29uRtzewqjolMg0pS" version="24.1.0" type="device">
  <diagram name="Page-1" id="K-FIC4L19wNbAjvmYsdw">
    <mxGraphModel dx="2284" dy="841" grid="1" gridSize="10" guides="1" tooltips="1" connect="1" arrows="1" fold="1" page="1" pageScale="1" pageWidth="850" pageHeight="1100" math="0" shadow="0">
      <root>
        <mxCell id="0" />
        <mxCell id="1" parent="0" />
        <mxCell id="ljewHxEcHpymSgs0MfJS-1" value="" style="rounded=1;whiteSpace=wrap;html=1;dashed=1;fillColor=#d5e8d4;strokeColor=#82b366;" parent="1" vertex="1">
          <mxGeometry x="80" y="120" width="390" height="140" as="geometry" />
        </mxCell>
        <mxCell id="ljewHxEcHpymSgs0MfJS-2" value="VCNN" style="text;html=1;align=center;verticalAlign=middle;whiteSpace=wrap;rounded=0;" parent="1" vertex="1">
          <mxGeometry x="350" y="120" width="60" height="30" as="geometry" />
        </mxCell>
        <mxCell id="ljewHxEcHpymSgs0MfJS-3" value="" style="rounded=1;whiteSpace=wrap;html=1;dashed=1;fillColor=#d5e8d4;strokeColor=#82b366;" parent="1" vertex="1">
          <mxGeometry x="90" y="130" width="250" height="120" as="geometry" />
        </mxCell>
        <mxCell id="ljewHxEcHpymSgs0MfJS-4" value="Resnet101" style="text;html=1;align=center;verticalAlign=middle;whiteSpace=wrap;rounded=0;" parent="1" vertex="1">
          <mxGeometry x="215" y="130" width="60" height="30" as="geometry" />
        </mxCell>
        <mxCell id="ljewHxEcHpymSgs0MfJS-14" value="fc 81" style="rounded=0;whiteSpace=wrap;html=1;rotation=90;" parent="1" vertex="1">
          <mxGeometry x="350" y="187.5" width="70" height="25" as="geometry" />
        </mxCell>
        <mxCell id="ljewHxEcHpymSgs0MfJS-34" style="edgeStyle=orthogonalEdgeStyle;rounded=0;orthogonalLoop=1;jettySize=auto;html=1;" parent="1" source="ljewHxEcHpymSgs0MfJS-15" target="ljewHxEcHpymSgs0MfJS-16" edge="1">
          <mxGeometry relative="1" as="geometry" />
        </mxCell>
        <mxCell id="ljewHxEcHpymSgs0MfJS-15" value="conv_1" style="rounded=0;whiteSpace=wrap;html=1;rotation=90;" parent="1" vertex="1">
          <mxGeometry x="90" y="187.5" width="70" height="25" as="geometry" />
        </mxCell>
        <mxCell id="ljewHxEcHpymSgs0MfJS-35" style="edgeStyle=orthogonalEdgeStyle;rounded=0;orthogonalLoop=1;jettySize=auto;html=1;entryX=0.5;entryY=1;entryDx=0;entryDy=0;" parent="1" source="ljewHxEcHpymSgs0MfJS-16" target="ljewHxEcHpymSgs0MfJS-17" edge="1">
          <mxGeometry relative="1" as="geometry" />
        </mxCell>
        <mxCell id="ljewHxEcHpymSgs0MfJS-16" value="conv_2" style="rounded=0;whiteSpace=wrap;html=1;rotation=90;" parent="1" vertex="1">
          <mxGeometry x="135" y="187.5" width="70" height="25" as="geometry" />
        </mxCell>
        <mxCell id="ljewHxEcHpymSgs0MfJS-36" style="edgeStyle=orthogonalEdgeStyle;rounded=0;orthogonalLoop=1;jettySize=auto;html=1;entryX=0.5;entryY=1;entryDx=0;entryDy=0;" parent="1" source="ljewHxEcHpymSgs0MfJS-17" target="ljewHxEcHpymSgs0MfJS-18" edge="1">
          <mxGeometry relative="1" as="geometry" />
        </mxCell>
        <mxCell id="ljewHxEcHpymSgs0MfJS-17" value="conv_3" style="rounded=0;whiteSpace=wrap;html=1;rotation=90;" parent="1" vertex="1">
          <mxGeometry x="180" y="187.5" width="70" height="25" as="geometry" />
        </mxCell>
        <mxCell id="ljewHxEcHpymSgs0MfJS-37" style="edgeStyle=orthogonalEdgeStyle;rounded=0;orthogonalLoop=1;jettySize=auto;html=1;entryX=0.5;entryY=1;entryDx=0;entryDy=0;" parent="1" source="ljewHxEcHpymSgs0MfJS-18" target="ljewHxEcHpymSgs0MfJS-19" edge="1">
          <mxGeometry relative="1" as="geometry" />
        </mxCell>
        <mxCell id="ljewHxEcHpymSgs0MfJS-18" value="conv_4" style="rounded=0;whiteSpace=wrap;html=1;rotation=90;" parent="1" vertex="1">
          <mxGeometry x="230" y="187.5" width="70" height="25" as="geometry" />
        </mxCell>
        <mxCell id="M7D5lyLpoFJ9LOZT882y-5" style="edgeStyle=orthogonalEdgeStyle;rounded=0;orthogonalLoop=1;jettySize=auto;html=1;" edge="1" parent="1" source="ljewHxEcHpymSgs0MfJS-19" target="ljewHxEcHpymSgs0MfJS-14">
          <mxGeometry relative="1" as="geometry" />
        </mxCell>
        <mxCell id="ljewHxEcHpymSgs0MfJS-19" value="conv_5" style="rounded=0;whiteSpace=wrap;html=1;rotation=90;" parent="1" vertex="1">
          <mxGeometry x="280" y="187.5" width="70" height="25" as="geometry" />
        </mxCell>
        <mxCell id="ljewHxEcHpymSgs0MfJS-26" value="" style="rounded=1;whiteSpace=wrap;html=1;dashed=1;fillColor=#fff2cc;strokeColor=#d6b656;" parent="1" vertex="1">
          <mxGeometry x="80" y="280" width="390" height="130" as="geometry" />
        </mxCell>
        <mxCell id="ljewHxEcHpymSgs0MfJS-27" value="MLP" style="text;html=1;align=center;verticalAlign=middle;whiteSpace=wrap;rounded=0;" parent="1" vertex="1">
          <mxGeometry x="180" y="280" width="60" height="30" as="geometry" />
        </mxCell>
        <mxCell id="ljewHxEcHpymSgs0MfJS-44" style="edgeStyle=orthogonalEdgeStyle;rounded=0;orthogonalLoop=1;jettySize=auto;html=1;entryX=0.5;entryY=1;entryDx=0;entryDy=0;" parent="1" source="ljewHxEcHpymSgs0MfJS-28" target="ljewHxEcHpymSgs0MfJS-30" edge="1">
          <mxGeometry relative="1" as="geometry" />
        </mxCell>
        <mxCell id="ljewHxEcHpymSgs0MfJS-28" value="fc 1000" style="rounded=0;whiteSpace=wrap;html=1;rotation=90;" parent="1" vertex="1">
          <mxGeometry x="90" y="342.5" width="70" height="25" as="geometry" />
        </mxCell>
        <mxCell id="ljewHxEcHpymSgs0MfJS-46" style="edgeStyle=orthogonalEdgeStyle;rounded=0;orthogonalLoop=1;jettySize=auto;html=1;" parent="1" source="ljewHxEcHpymSgs0MfJS-29" target="ljewHxEcHpymSgs0MfJS-31" edge="1">
          <mxGeometry relative="1" as="geometry" />
        </mxCell>
        <mxCell id="ljewHxEcHpymSgs0MfJS-29" value="fc 2048" style="rounded=0;whiteSpace=wrap;html=1;rotation=90;" parent="1" vertex="1">
          <mxGeometry x="200" y="342.5" width="70" height="25" as="geometry" />
        </mxCell>
        <mxCell id="ljewHxEcHpymSgs0MfJS-45" style="edgeStyle=orthogonalEdgeStyle;rounded=0;orthogonalLoop=1;jettySize=auto;html=1;entryX=0.5;entryY=1;entryDx=0;entryDy=0;" parent="1" source="ljewHxEcHpymSgs0MfJS-30" target="ljewHxEcHpymSgs0MfJS-29" edge="1">
          <mxGeometry relative="1" as="geometry" />
        </mxCell>
        <mxCell id="ljewHxEcHpymSgs0MfJS-30" value="relu" style="rounded=0;whiteSpace=wrap;html=1;rotation=90;" parent="1" vertex="1">
          <mxGeometry x="145" y="342.5" width="70" height="25" as="geometry" />
        </mxCell>
        <mxCell id="M7D5lyLpoFJ9LOZT882y-3" style="edgeStyle=orthogonalEdgeStyle;rounded=0;orthogonalLoop=1;jettySize=auto;html=1;" edge="1" parent="1" source="ljewHxEcHpymSgs0MfJS-31" target="M7D5lyLpoFJ9LOZT882y-2">
          <mxGeometry relative="1" as="geometry" />
        </mxCell>
        <mxCell id="ljewHxEcHpymSgs0MfJS-31" value="sigmoid" style="rounded=0;whiteSpace=wrap;html=1;rotation=90;" parent="1" vertex="1">
          <mxGeometry x="260" y="342.5" width="70" height="25" as="geometry" />
        </mxCell>
        <mxCell id="ljewHxEcHpymSgs0MfJS-32" value="sigmoid" style="rounded=0;whiteSpace=wrap;html=1;rotation=90;" parent="1" vertex="1">
          <mxGeometry x="395" y="187.5" width="70" height="25" as="geometry" />
        </mxCell>
        <mxCell id="ljewHxEcHpymSgs0MfJS-55" style="edgeStyle=orthogonalEdgeStyle;rounded=0;orthogonalLoop=1;jettySize=auto;html=1;entryX=0;entryY=0.5;entryDx=0;entryDy=0;" parent="1" source="ljewHxEcHpymSgs0MfJS-50" target="ljewHxEcHpymSgs0MfJS-51" edge="1">
          <mxGeometry relative="1" as="geometry" />
        </mxCell>
        <mxCell id="ljewHxEcHpymSgs0MfJS-65" style="edgeStyle=orthogonalEdgeStyle;rounded=0;orthogonalLoop=1;jettySize=auto;html=1;" parent="1" source="ljewHxEcHpymSgs0MfJS-50" target="ljewHxEcHpymSgs0MfJS-56" edge="1">
          <mxGeometry relative="1" as="geometry" />
        </mxCell>
        <mxCell id="ljewHxEcHpymSgs0MfJS-50" value="" style="rounded=1;whiteSpace=wrap;html=1;fillColor=#e1d5e7;strokeColor=#9673a6;dashed=1;" parent="1" vertex="1">
          <mxGeometry x="520" y="120" width="50" height="290" as="geometry" />
        </mxCell>
        <mxCell id="ljewHxEcHpymSgs0MfJS-43" value="" style="endArrow=classic;html=1;rounded=0;" parent="1" source="ljewHxEcHpymSgs0MfJS-14" target="ljewHxEcHpymSgs0MfJS-32" edge="1">
          <mxGeometry width="50" height="50" relative="1" as="geometry">
            <mxPoint x="425" y="340" as="sourcePoint" />
            <mxPoint x="475" y="290" as="targetPoint" />
          </mxGeometry>
        </mxCell>
        <mxCell id="ljewHxEcHpymSgs0MfJS-25" value="text features" style="rounded=0;whiteSpace=wrap;html=1;rotation=90;fillColor=#fff2cc;strokeColor=#d6b656;" parent="1" vertex="1">
          <mxGeometry x="500" y="330" width="90" height="30" as="geometry" />
        </mxCell>
        <mxCell id="ljewHxEcHpymSgs0MfJS-24" value="visual features" style="rounded=0;whiteSpace=wrap;html=1;rotation=90;fillColor=#d5e8d4;strokeColor=#82b366;" parent="1" vertex="1">
          <mxGeometry x="500" y="175" width="90" height="30" as="geometry" />
        </mxCell>
        <mxCell id="ljewHxEcHpymSgs0MfJS-48" style="edgeStyle=orthogonalEdgeStyle;rounded=0;orthogonalLoop=1;jettySize=auto;html=1;" parent="1" source="ljewHxEcHpymSgs0MfJS-26" target="ljewHxEcHpymSgs0MfJS-25" edge="1">
          <mxGeometry relative="1" as="geometry" />
        </mxCell>
        <mxCell id="ljewHxEcHpymSgs0MfJS-49" style="edgeStyle=orthogonalEdgeStyle;rounded=0;orthogonalLoop=1;jettySize=auto;html=1;" parent="1" source="ljewHxEcHpymSgs0MfJS-1" target="ljewHxEcHpymSgs0MfJS-24" edge="1">
          <mxGeometry relative="1" as="geometry" />
        </mxCell>
        <mxCell id="ljewHxEcHpymSgs0MfJS-51" value="" style="rounded=1;whiteSpace=wrap;html=1;fillColor=#ffe6cc;strokeColor=#d79b00;" parent="1" vertex="1">
          <mxGeometry x="645" y="120" width="90" height="140" as="geometry" />
        </mxCell>
        <mxCell id="ljewHxEcHpymSgs0MfJS-52" value="sigmoid" style="rounded=0;whiteSpace=wrap;html=1;rotation=90;" parent="1" vertex="1">
          <mxGeometry x="675" y="179.5" width="70" height="25" as="geometry" />
        </mxCell>
        <mxCell id="ljewHxEcHpymSgs0MfJS-53" value="LP" style="text;html=1;align=center;verticalAlign=middle;whiteSpace=wrap;rounded=0;" parent="1" vertex="1">
          <mxGeometry x="655" y="122" width="60" height="30" as="geometry" />
        </mxCell>
        <mxCell id="ljewHxEcHpymSgs0MfJS-54" value="fc 81" style="rounded=0;whiteSpace=wrap;html=1;rotation=90;" parent="1" vertex="1">
          <mxGeometry x="635" y="179.5" width="70" height="25" as="geometry" />
        </mxCell>
        <mxCell id="Mq1jqRj8me7Z0p1k6pqm-18" style="edgeStyle=orthogonalEdgeStyle;rounded=0;orthogonalLoop=1;jettySize=auto;html=1;entryX=0;entryY=0.5;entryDx=0;entryDy=0;" parent="1" source="ljewHxEcHpymSgs0MfJS-56" target="Mq1jqRj8me7Z0p1k6pqm-17" edge="1">
          <mxGeometry relative="1" as="geometry" />
        </mxCell>
        <mxCell id="ljewHxEcHpymSgs0MfJS-56" value="" style="rounded=1;whiteSpace=wrap;html=1;dashed=1;fillColor=#dae8fc;strokeColor=#6c8ebf;" parent="1" vertex="1">
          <mxGeometry x="645" y="280" width="375" height="130" as="geometry" />
        </mxCell>
        <mxCell id="ljewHxEcHpymSgs0MfJS-57" value="LQP" style="text;html=1;align=center;verticalAlign=middle;whiteSpace=wrap;rounded=0;" parent="1" vertex="1">
          <mxGeometry x="770" y="280" width="60" height="30" as="geometry" />
        </mxCell>
        <mxCell id="ljewHxEcHpymSgs0MfJS-58" style="edgeStyle=orthogonalEdgeStyle;rounded=0;orthogonalLoop=1;jettySize=auto;html=1;entryX=0.5;entryY=1;entryDx=0;entryDy=0;" parent="1" source="ljewHxEcHpymSgs0MfJS-59" target="ljewHxEcHpymSgs0MfJS-63" edge="1">
          <mxGeometry relative="1" as="geometry" />
        </mxCell>
        <mxCell id="ljewHxEcHpymSgs0MfJS-59" value="fc 512" style="rounded=0;whiteSpace=wrap;html=1;rotation=90;" parent="1" vertex="1">
          <mxGeometry x="655" y="342.5" width="70" height="25" as="geometry" />
        </mxCell>
        <mxCell id="ljewHxEcHpymSgs0MfJS-60" style="edgeStyle=orthogonalEdgeStyle;rounded=0;orthogonalLoop=1;jettySize=auto;html=1;" parent="1" source="ljewHxEcHpymSgs0MfJS-61" target="ljewHxEcHpymSgs0MfJS-64" edge="1">
          <mxGeometry relative="1" as="geometry" />
        </mxCell>
        <mxCell id="ljewHxEcHpymSgs0MfJS-61" value="fc 256" style="rounded=0;whiteSpace=wrap;html=1;rotation=90;" parent="1" vertex="1">
          <mxGeometry x="765" y="342.5" width="70" height="25" as="geometry" />
        </mxCell>
        <mxCell id="ljewHxEcHpymSgs0MfJS-62" style="edgeStyle=orthogonalEdgeStyle;rounded=0;orthogonalLoop=1;jettySize=auto;html=1;entryX=0.5;entryY=1;entryDx=0;entryDy=0;" parent="1" source="ljewHxEcHpymSgs0MfJS-63" target="ljewHxEcHpymSgs0MfJS-61" edge="1">
          <mxGeometry relative="1" as="geometry" />
        </mxCell>
        <mxCell id="ljewHxEcHpymSgs0MfJS-63" value="relu" style="rounded=0;whiteSpace=wrap;html=1;rotation=90;" parent="1" vertex="1">
          <mxGeometry x="710" y="342.5" width="70" height="25" as="geometry" />
        </mxCell>
        <mxCell id="ljewHxEcHpymSgs0MfJS-67" style="edgeStyle=orthogonalEdgeStyle;rounded=0;orthogonalLoop=1;jettySize=auto;html=1;entryX=0.5;entryY=1;entryDx=0;entryDy=0;" parent="1" source="ljewHxEcHpymSgs0MfJS-64" target="ljewHxEcHpymSgs0MfJS-66" edge="1">
          <mxGeometry relative="1" as="geometry" />
        </mxCell>
        <mxCell id="ljewHxEcHpymSgs0MfJS-64" value="relu" style="rounded=0;whiteSpace=wrap;html=1;rotation=90;" parent="1" vertex="1">
          <mxGeometry x="820" y="342.5" width="70" height="25" as="geometry" />
        </mxCell>
        <mxCell id="ljewHxEcHpymSgs0MfJS-66" value="fc 1" style="rounded=0;whiteSpace=wrap;html=1;rotation=90;" parent="1" vertex="1">
          <mxGeometry x="880" y="342.5" width="70" height="25" as="geometry" />
        </mxCell>
        <mxCell id="Mq1jqRj8me7Z0p1k6pqm-2" value="" style="shape=image;verticalLabelPosition=bottom;labelBackgroundColor=default;verticalAlign=top;aspect=fixed;imageAspect=0;image=data:image/png,iVBORw0KGgoAAAANSUhEUgAAAIYAAACFCAYAAACe7YA/AAAACXBIWXMAAA7EAAAOxAGVKw4bAAAgAElEQVR4Xuy9W68lSXbf91srMnPvfW51qk5V33tmyGnOaCiRI5EjGSQFiwJsWJAfbPlVgGHD8Iu/gr+B7Re/+smA4c/gJwOGDVmQaQJDUjM9nHv39KW6qutyrvuSGbH8sCIyc+fJU9VDE3qadZBn74yMjFiXf6xYccncYmbGb+g3NCGdJvyGfkPwG2D8hu6g3wDjNzRL1TQB4L/8b/57zAxRAVVElYQhQTERohghNERLxJTQ4HlMQEQw/DNOCwZU1fOYYWZ0WH9fOQBK6CMiqGp/Pv5MKRFCIITAtmuJGBEjCZjlIxqHywPa3YYgN1w8e8qTzz7Fti0hBBbLAw6OT7n/6A0sBDoCBK+vS0ZVNSQzzABREMMlvE1FJiEgEqaXgSFP8Fz9+WyoZ0C+FmP0+0LY00ER1Mx63ZVrJV80I1rqz4v+U0p9uf/6f/pv+3vhDmCA37yfkPnMp6US1cGQLodBuXdaxh10q64JpZSA+XxjBdy6alCFQNe1CNBtd7x4/hyLEcTYbjeIBC4uP2fbJe4/eoguD4kxIiKEMG/cvwmN+Sy6QgUzXLdFsXs0gEZUwDIkC/D961eiAoY5mtPrLDD6QkT8yMZHBFFBDEwABEEwGQEGZ9ZyOa8jkcHD3EXJEiDOhnjprlDBMGJy31R4kKw0s0QVAu1uCynx8ounXL04ZxEUzDhcHYAITV2xqhsarUiAZQ/VdR11fRscUwVPeTfMLTdOmwJDhGRGMbLobcOlZEAGBYKKkFLKsnseQ3pwFD0W4PWliVdS+ByDZMp7oVlgeE0Tg4l4+rggyZUUFsSZRxwse3kBMsP9Kbn8vgrvSqYKKuUkG4mb7zHco1gRuuSwRB2UdrelCRUvL17y7PFjFqocLBccrFacX1ywaJY8enTGzXbHjz78kEdf+zra1CwWC6pm4ZWMyMxuGf2Wco1BJ5mmeQzDBsE97Zbc+d/o0/JXs6w/StpQ1i1gcLv+QqrzYeYdwBBkxIS7PEecGxwShorHFpi7elXFsndxA5cCnYog5TtC9jye/y7mx2CZIt3MSKPWMJBRqbBudzSLmm57Qy3C4WrJ6ekJl1cXHJ8cE2Mixo57Jyesjk+47CLr6x1d13EUKqrqtsf4m9AU9L1BRzQ9L3YoNAZFr0gBSYN95kjKPf35fr7pOdwBDJGRtxB3eaLqKDQP7gA6S0gyyAL7uTiQUsIYjF3KNKz3Ktg+U2aDuy2Upugvys15S/6UnEeIJIuIGZvNDU2tXF685NmTJ2jXklrl8uqCzXbLvdWKerHg4vKC7bbj4OSUlBJnZ2es12u6rsMsd5+Sgz7JshQDi7v311GJW4q8KSVUvLWaeSBYrpfyx3WUc+9KhnQQH1ta8ah417+nNHp9je1Ryp3jf9aPJADJaM11wH5dpasoaQUsxQPAIHA5pkb/qvRV7gpVRSoKToYCdVAkRbY31zRBsZhYLBq2ux2mxv03HlCtFmxjS3OwJBJZrZaEEFgul1xfX0+r2TPKVMl92kgHhcrIKkaPh8oo7lVH4vZhIv3h51/hyBos/O4Da57u9BgIIOIAgXzuh3mmUd5cYb6tB1Bw3I0Z8nvx8+HrK2l8T3+eP8v3FPPwtQqYCZC4eH7O+uKcq5cvSbstD06PSZZoDhZ0JFoSzeGSg5MjdFFxev+M802LmVFVFdvtNpc+UJGh9M2lpf+7otLKy/evQmYTG0w8xxzNAsMBkT/z+dgInjS6JvQjgTFZSn49MzJm6G+bYowYRkrQ7nY8fvwZjcCD01MuXjzDLFI3NfWq4fD+EevYIpVwc33DvfsndLvIbrdBtaJrOzRob3wH8FS6ouhJMtxWBAOAiudIlvB5Eb9uQtZ5zl9unKGxUQXuYGJM1oOjAKPwcZc9ZoFRq9LlySuqAJUSU0RDQEWQlIi5AiMzGBTNICkkBmE8oQUIAmkQxBiUA+Sh6X60bLIvuOECiQBmWIrUamx3EaHh5ZfXVHLAW2+esbl6wem9B1y+/JLnF8955+RtNtdXHB4uuXj2JWZCJ1suX17y0x99yPu//Xc5On3A85fnHBwekzCc85TBIUSriDHzoFUWZyzT/jm4XFL+RFCCx+wCmBBQ140ZmOtuPEkm4od3RQMozQy1UrKTmWEpETR4F46QyOVKABFi7ofMQMZGyzQfY6QEBhqUJD5r5lZwEgQdy30H6qZonJ5/FSpuc5o2jl2SGSl2LOqaX/7yI6qq5s1HbxHbBCYsFg1nZ2c8fPMNjo+PWDQ1KsKj+/dpb26Q2FFXiqbIZ598TLvbsFmvOT4+JiGAkkR8RjWfu3HKwcz5PpUZX8j8m5ckNrkziztfyjzZ5Binkxvr+BjTXTaZ9RjJjDIVLpKFyK7HKIV5gZL/ieTuphgy50kYYn32Pc6N24wWkLmQ5i32NjZuUd0EfvKTn/LWW++xaFak1JFSy/n5c64vntPtbkjtjquLlzx69IC23bHZrFnfrHn8+RPMAphg3Y7tzTUxRjbbLRYqQDBRIHnLfQ0/dykbXD+WvcKvZ36nubKnKQUQhUQELHs4N2B/7a7uZBYYGoIbxQzT3C/mcwyClh43FygC6q4sxYThXUjpJ5P50MzBM2i1fBuDo7/qsmB3AGNfGOHy6iXHxwccHa24OL/kYLnk/PwFN1cXkHZY15Ji5PLiiqOjA8Dousj11TVdG6nrihQN2pZVU7NpE0GUzoQkAVAMRUnuLwTnkRHPmYQpf9kLZxJxxz8n1yD3HTRjxFkSuQ0O6E02TpsrcbYrUVXQ3NolA0OG8EvE+0nIRh2VPDb2WDlTRRWaeoxx2eBKmlJpdf2REpvthkdvPOTy6oJHZw9RhZQ6rGupxKfTm3pBSsazL19wfX3Nd7/7XdbrDZvNhtXqEMx49OA+P/vxj0ntjm63dSPn/w4OceORZS2XpseEpvMPIl7O9HhlmXcc066i7zJ0iPlKnUL+vMMehWaB4UZVVD34iSnRxQ4TSOKrdQbuJXKXUxQVQkCqMChOBa3CwKTK3mG5vnIkPKaJlhyY2WONhelBWYCBcXV1TRsTq9WKFy9eIChHB4cEDWzWa8Sg3WyJ25Z7R8d8/b2v8aMf/BAxWNZLuu0OzNisr0ntls8//YRlVRGSUStYbLFuR1CXK1n2qJPvyNCljo8Qwl6cUajESSI5QLcSWPu5FznIexeZDXFXyVdWTmG/jFJ+WZme8gR3dCXgwo8N5vGGIy6JA8QB5HkLzU10vYqm+XpAjej1RQkPzh7yxRdPODq8T9x1VKJUWiNRWFUrbq4uEFGSJR4/fsJ6c0OMEdVA1xrrmw0pGZfn50i1YLWsUOtQS6TNlmVdAUbbdiQZ1DbuIn4d8g5XKGs8MRuwyG5AGbRIPp/qpVBvgxGYxoaxZNCnc3dBI5oFxthYPUPiQrg4+9d7xiegKCobCzem6flXpXHLEREQ4fj4lIvzNTc3GzZXGy6enbO9OkfbSLfeEqTyQFYEkvH8y+ekFAlaIya0ux2CQoBQGRI7zp89Qauaszff4OHZKS9fPOf5piVVrrZc9YgXP/ZGbHdRbz8voLTkX5e8sd6mUl7RVe8pEMfMK7wP3AGMW9YXkDyvL+X6iOZA8f+XxlW8rkhBaLvIG2++TeqUg7cP+OLTT4kh8OzzK6pQkWIidgkJSrvbUNWKqhBjJGgFSYkxEaoKMaPdbrl88ZywaOjaG6S75uT4kFYbLjp87kI8HrPoTUDyv6n65sgwkKF7TDH5PBCuw7FOS5nmN94iAyggKECD0flwUwGSWe76YJbZWWCoDSMKyRzFlFD18XyVYwrwa0MF4vm19JFDjc7j/u4twRkt9xtZKZaVYoBATB5HeB6PO8blgHunigas4fzlju0msr56SRdvaBqIbUvNEZubS5arBRcXX3J4uIKuRXSJdMIiVFibsLRDVbl+8YzmcMn3/uBPuFyfc7l5ynZbsaxO6TSwtkRdHWExy22+g6zIMaZx325mObrzDgVAA4i4TsjDYgXULBvOdTDWXTLDRF1fWQ+QdTrSjYjHE2Z5ZAmgeXHUrAfTmGaDT3Bextk13zw2ZE+3EuapMDs+5qhPlaE7eh0Zxq4zdrvEdtsiCD61GOm6lioE3n//HVbLJRYjB6sVsWvzBJP1R6XiSomJ1HX8+3/yxzz/8ksQkKAcH6yg3dDtNlRVNSyKFfvdQcVYJSb5Kt1GsYFaLt/cDpoBpuKtf1zWXd/vIlOPGac0C4yC7PFR5iHuzDOjlmke2Ef2V6W5cvbJvVPQCgy2N2tSjHS7FgzaNhLqine+fg/qDVE6QtWALkhS+6ymdiTpiKnFMEQAE/7V//VvWK9bPv/0S7Y3RrtNXF1dcf/ePSw66DILQAa13OZ5vOgGt6/Py3WbVH0NZ3zAUN5X+T6tc67urwyM4r7vqmQGF7fyjI8yVPqqNK13TAaIVu5SY0IM0m7H+vqakKevY0pc7p7w4K0DtmlDa2BaEwlEgagdKezorIWyjdmU8/NLfvbjj4gbIW6V2BqffPwrLi4ugBxjZD7KSI0ZeQsgiiHhtn6mZOMjl+1rN8OnMV/ONG2aPs0zpVlgzJEwX8CvQ4WJMp4fK+lVNBbkLhKt2LUt2+3a5xpipNtu+3piivzed7/Nn/4H/5jl4YLQ1GzbzvtoARPDxBA1PM42UtciSem2LecvLnj2+AXf//Pv8/TxF5wcHdPufIkeGbq8YqwplRijyPxVPWcBxBgkY3DM0ZyepgCYyzOmOy0zDV5eRwU442MaT5SjTMRMdzWV+qYTQWMl3sVL2+5omprt9VWekNpysGpo2w1N07DZbvk7v/sdqqZxxSosD1c0qwVH906ol0sWyxVmvplGxOuKXUvsEqlLvo0gwf3TUy5enrNcLDDzJWyRHHuVSbuJvIzSwMsudd01FyIq+ZENBweTcwnae/K5rqWcl7oKmQ2BcDmf0uyoRERyz+AYNQPuMMi/a5oTAiBUgsZE266RkCBtaHfXHB0tePTojO7xjv/hv/sfOXtwBjHx/tfe5PnzlyyaFRcXF7z71vv86qNfcnx0xNXVmhDyqAnDYsvm+pIUdzRVYBMjL1+84LBpEG1cTbixTHDdTdgcG2JskK/qNQtNQeT6eLVtzAwyGEp941nROR5eDQxzUBSE/W3QtJx5M+/TGPHjFjeQgSZuLi7YbS+57m5I7Q2rpbLb3fD0y8dstmuuP9vx8tkN907u8dOf/JCqqmnbxNHBfR5/+iUnR2dcXTwlhEDsOgjK4dGK6+sbtEredVChpnS7liDKLiVEHRCZk68kEwxgmZdpKOtWmdP7xtdmSMT/jcE5B4YxzV/NN4sMaBvTHMP995GCplQYExEvfKKIO+kr5EuxQ6Tj5voFV5df0nXXxG5DUMOsY7lccrQ85f7xI54//ZJahbhbs6iUzc0125stFy8vEBG62KJBiNbxwe/8FqER2nYD1iEkFsslIh5QBtW8T4MMjuJt98nMu5TxJ7hOVIfdVHvHpAxwg1ZV9cp1jilJ6WJkGDKX+0qXPqVZj2HicbmRx8qhbFLxoAcVQt7PWVqKSPnnShIgiCLmSkGEiG+qKYqIMbpwuYAggkmeuEkGAnWemEG9bBG/N5lfz+pFOmGzvqCu1lxePON0WfFf/1f/OadnD/nZL37B//y//K8EE66uEiJGjILQ0O0iAlTBMDG2dNRN7YbWQLh3wuGjh7Q3a2S9oRMIzRJEWSwWXMdEokM1oFQ0HYgkxps2RITSuIrRew/ISD/ZYOPrfUPK1HVdb1jPY0gYrgOQQdbHcIgbxMyvASSfRKuD4Bf3adZjJAEyM+WW8mn5ehmaGcMn+Tv5WtGNs49fwBVh0NdRqCjJoEd5UdCYpsoyMxZ1Q2p3vPf+mxyshH/yT/+E0AR++OEPaJqGN998g7pR6rqiqmqqqsZXjwXfDtSBRCQIbdvSmZEQ/vwvvs/D997lZteCVGjVcH59TbNcsut2aA4GkxggSAk0ZuirtO6/DRoHoiLS22PPTpPPKc16DEeZIQgiWSABLNvyDgF7o44M14NCwEsdmCnL9WNyTyC+rdCyV5n0h1NQAHTtjtWy4dlnn/GNb/42j956kx///KeYwYvPLrnZ3njgZsPIYNwqzQySUGkgYgRp6CygYcnLyw3333qX9vk5bWeIBu6fnbG1PD+R+fMhL1nKfSo83/VZaE93r2gU4/umZYzlExm4GZdWHjW9i2aBAZkBYKjTQTJJ7GnqBUS8WyhAEPK/zIyBdw95Y7BB9jYuSEx5YTqDZyzcODIXVV9ToKMLStt1VM2CX376KaSO5y+eE+qa07NTnl6vwfb7+DE4MKNbt9TViqZacfTgjKO33uJivebN99/hpy9/CLXw7tfeo01GaCpazKerhbzukJmc0Jwh9+qeXJt+H6dN80zzjQFVwFH46rt+t8idNNuVTCvyyl34X4f29CODEBF33uN6CohKWkyjDSxk4IyO4llEFQ3KdrPh5N49pAr86Cc/4/7Dh4S64f7DM27WN2y269eowulgdUgIlW/3W6y4d/8MWSyQxYpv/b3fpzk65He+83dAFQtDq8s9CWD5ZJ7Ghpwz6qvSx/SqPOWayDCZ6BeGPKXLv0spsx7DUaYED2RB8Z3iI/JNLj7BUlbsQgg9IlNKSN4Bptm5+mogaJ5tTNjAmAhaVvzEA9GUAYQMIDNAVIldhwhcXl2yWd/w8PiIp8+fcXWzwTrYdfDsxTnb7ZrYJbpt68KYdyWlVVVV1XsgX4FMdK1hTeLtd97lpx//ikfvv09nsGgWfP2Db/H46ZcgAetGz2eooWUjRnLjFJq24HKUPHPn4/xTII1B0etlJFMZipYlh5g86BfoJ8TEHBxqzIJjFhghBDci7najWd+Pivi//mFfEVRyN3IH9ddUQLL3yUkpxX7EUbbHWc4r5uCZNkARX2sREQ4ODlgsGp6/fMFqecCjd7/O+uIFT55fkmj4xU9/5I8o1jWprISOFDulzjqO7p2yuvcGUYx3v/E1YlUTo6HVgtY2kF+NoCKgQunZzFw//tqCfXBMaXytfJ/OLYyNbTbMoI5JRNzgo/LGwAK/piE4g7juLet1bmUV7gDGHDkDbjiRYextjJC+f8veuZENbwYCRcT+xSv5+nivRQGH1zIqB8MEuthRVRUSlNNHD2m3W954533s7BHX68iP/+2PqaJSWUXc3B6rT8mApPDy+iVxecADFbrUYVIRqoo2RrRuiGEwhhio5pjFImTXLTZq1bbfbY5pnGdq+GLgom9wT71HGY2Sj9k8ZO+MUWK68nDYtNEVmo0x9jaRqrpLck3sCWJmHiTm73fU4SyV+4srmxx7JPRexE1wm8ZD2S5FdgkWB4fsTFgcnmLasDw4od0llIpaa4K6lylGmBoCsrxNzXq34cX5C+9e4nhCSjHJAbH5fEqRYei3xY9SZj4vn/210fepPkTyWkfuz408dzOiMQ/jI0OgP4oNRdUbm8yNm/Zp1mNUor4Uje9IiuDM5dJcdleEmmJFGM0Viudpuw4dzc6Zpb47Ifn3FAcllc1AJHBXZ94gdGgxxZhm/uCxmVFpIJj59ri65sY634CyXFAdHbK5eMFSAyZK10XANwWbGV3s+gAttpEQFZqazpRmdUglAdUKVFGFZMnnKsDlVkFUR0DLwV4GtvOaGzZuKHCZIIMpI6oH3zifZGWa+aslRP0cQUTBShfv95uZzzGVskQoalUE8v0C/ZbEOZoFBuS68xfLBc1Rj7ySYZyxcASUnIX58v0uj+AuzlvKXI6iiPKd5N2LqUJMVMslzWrJy2ctnSU687ikjHTAQdYH0bm8OjQkrdklehBBVmQ++jozlccp+nLNX8NQ8pq5V+l1la/1RUwEHOcr1/q6Zfh0sbMOAO9yDVR85hi8sdqtKjLgXOaxLIVmgeEZ8w2ZAZGRCSV7CHKF0n/bo9LKbaS4lJJ7GvVW23uJEfWKHCl0fD7OU6jwSk6PMVLXNckSdV2jBrvtpgdCIdX9pelkPhKq68pdb5a1iOdy+4mUa5PvmIP/Fn8Tmkubo9k6RlQaSCGRwcOOeZryIzo/swyvAIYAIqX/xBU05NjLO190Nn52sR5bDFO0IQRSvNtj7JHsK3GqdMBZEvaM9vDhQ1588kva3YYY/dWPY9AVGqfVdUWrysNHj7h37x6dCJb75VLRuI4xlTJE8hpTvj7LL7fvv4vG5Y7LLNem6SKTHWNm+W1Yg749RvM8c3wMTWdCnnm4Ye9WGRiC8n2c4TaZ5TLzvaWlztGU0XI6ru9VJCL+GoAqsNvt2G63/YISuPJSDpoLL+UTEboUqZpmcNm5zLl6RUZgyOXA4InGaX8Tmso89zlX1z6/GTz7VvQrd8h1t8foFeJHceeSE2IOHlV9TcMMD6hGdRiuIB/VCIb5Oxsw2radjV3GLbkw7OUPQeeY+nMrEbm521Tl6vyKdtdydHREe31D2/rG3XEZZQdVXdeu5KCoCYvlwssC/NVG5KlvoTxjU6h4or1Wyn6rnvJdqFy7y6vAUE6px2zY4JOSP9ZRyhnXVfJioJIBVHQ6aihzNAuMQo4BwV2QJ0hWUpm9ROZwOFCp3Mx6FPRpM53QVInSg2cQfJxvyGuAedyi7j6fPXvGYrlgt74mqOIh4b7BpuXcbDbUxycOfBGkyqMqVQQwr2aPVPf76jl9lFnIQuM67zLQ2NjlHLy+adr0+5hUs7ewAbwir7bbLDBcYfk7IyQXZpCpbvySyJ5W9is2IBsilymespfrFgnZEENrKAYdU7KE4co2cyCfn58TW3/aPaWUrToYpZSn6ptfRATLc0PX19cciudN4ENnnN9p3fsALfp7jVzs5xsDYEyFx/K9kKrHb6WMaTl79+Exj79JcfA4t2sbaBYYiICYG038NIF/z4pJKZL9CONJnnFt5asrzsspZQyKcGj0au0zjiiP/Uo+A8wSZjjIDER9RSaYIUlYr29od1vqoKRdpFIBU58BtKws1X5Y5+nC6uiQ6zby8NEj6qZhJzl2yK678DEm9xjOjwhMu5qSZ0wp+VwkIlB0keUuco71UuosABARl3kChCko9u7F7ynAGJR+m2aBYSG/igCfLEF9QWs/j8/+gbnhBJJOO4fMkghK3gXWazUDIscOBVzAnlBQ7nFw+TUjRu8yNCgWDaSi296wbJQQEy8un/Dum6c8/eiCAAQVWsvvFStshcA2dpzcOyEm48033+Jqu+X68hptKjbbDWF5iAH+KKABERGjf0VE6aulNBMwjNysskxCZ369l0zyPxUwKCKbox1ECmYgz0VALk+EBD7Blte1Rhn6uQ2yPklGADTP46TcTVqueKpvuAMYvrCSxZB8bv6pmW/V/HxrrnswuFPJW8jyMUd3pcNwzWCoy/L3Ud27rqWu/NUFL54/ZVELumz4ot3RVDWpaz0uCrk1iRDNqJuahNEsF/zq80+REDg6PeOTTz6huXfGG+8eQpkCV0FMEVIPaFUB8e89FQbFu9xin7Gc/dDdT3oDOW/5HsmKh17WXuZ8OmPTW6QqkNxLwRDEAgNzE5oFhoggWD/16+dexnwxTr2glLz7uV3YvSQAxi5wjqbJY3daqBIhqJHajo9+/gvee+MBZ/fu+c0qGEIwBUsOaBNMhdP7D1gdHbBrW5arJe2m4/LFBeFYObpfEXJfnASSgiK+DJAVO+0i9qnItc8ruMz7ZM6q7ss2vW9KonjLGNG0aM1H/8orFZ9D6su+XccsMMAZEgaj9ALm61Oxpob1vPsVijDHwy2aKkPEW+AQl0wVlwjBwdzuNmCJn//0Z3ycOp/11EBHi5iiyfMnhUXdcHxyTLNasn7+nEp8sW1Rib8aMhnBBII4uCTHM7dknQq1r4cCkNs01qL3+/6LA1l/sh8r3EnToie3eAxGflwTwCBPXsIc/3cAY8rQ9BxGLUWcj2lX8utQKb8wOK3LJffrd3kXESBGzl88J263HB+s2F1dIeqrr6igFoAEKKLQdolPPv2E9W7Hb/32b7HbdiyaBU+ePWXx4IBk+1G/SOmP82QYoxjjFTTH7zi970Jy2txnoVu6kWnzu02WXGdlJFNGM3A3b7PAgHwDoAomPtxBhhhjajrYr2QIv8bXcRvP0Ji5sbIMf39VHI2/zYYJngKUFHeE1LFqatrtDdGafogZU0Q0kJJCUFLqqBYNXbvl0aM3eP7yBevNmtQl1usti4MDtAqcnJzgHBgecIKgvkqZeanr+pax5pRdYpJCftn5Q8r5WD1zGgamwDDX81hnIhN9Ql6p9kcvQ4mzvIB87NMsMIZChxv2xCxCSM6Rz8cKcpFHd2Xhb7MwT4NyvZwieLk2rksEQqWwM54//YJvf/MDthcXPG+fstu1qFYgiokvqsUobLdbmkXNtm05OFxxdXXJanVIq0IMFfcfPuTk7AE7yUNVMQLms7vj2GsCgEJzYHkd/U3uITe/ad5ybmZUIfQ/s1UC0NfRLDBUfZpbRmhyJWRTl3+FlzFPmSGhsFzS8/FrUKkzse99ipcYzoWUOppKWS0WHC2X6G7LslkQo99tIqxVSKY0zRLbGYf3T7HkDwtVIbA4WHHZ7Th+8ICvf/t3uOkSWvsUvkluiSb9nMbUGAN53mna62kKjL3TTLfL8Wlur7Ngq9zr5wZmuNcqXmW28J7uBIalsiElF6Q6AAPof1FInFWRrKicbhiYm3MsypQf9we3xS2M+3upEhRh8g2D9/AjCPzgL7/P28cnfPHFYyrz+YpmsaBLBlXNw3e/zsNHZ1hs+cXPf8J6u+Z4uaDd3PjPXDULLrcX/MPv/j6bLlItlz5XYIYld8M+anDeiseYtnRmgfF6mrbmOY90qy6zfoJvfK2siRT9CuL7PvGE9IpNOnAHMMwikBA1grrWvZ8dGVYME2e+PFoIkPAdyeYl4AMKgZy3kOBMl/tuqVYMDAQjpRZFMRMwg2R5y5vPQ5xfvMA2F9j6ikunJYgAACAASURBVProANvdcLPbsTo8YXN1g9Q1q5NTHn7jG1A11CJ87933+L//9/+NWo1q2WAS2Ebl3tnb3LQRqRu2qaWqawAqrTymNyjAwPAGNIuCfcWr+rxFAZIlEBm2GpoNk2aFxlVNUntSBhBkBOwBRMTvuLXpNz9iehfdAQwv2Bl2W7yqCYxZnRqYybh8SoXxWRIwDFVXqJjPcmrtL0IxMa6uzjlY1rz84gUPjo/4/NOPWdYNTbNgu9tRLZa8vN7wnW99m7ZZEAnsUqRD6WKiqpTtzZa6WXJ+cc3Rm+8RqoaoQh3qyWirnAyu2BI4+gcSgblp8T0dCn5fn3SnFvaozHMUkmTI1ItMyhKYGTVO79mnWWA4ZTeWC3S0D3L05zmxVNO3CvAWntPuolLO3WQMv3viAhpGihG1xPFqybOnX7C5uuD0+Iib58+JyUgGOxNaUf6j/+Q/5eJmTQqBmLz1huBPi1/f3LCoG9bbjvU28fDo0Fu3+hsKi0IdmP7p7cQvaNHBhGaS+nwirrDhnDnL3XYWM6SavfKIvAPfJ/fh9I3+1RNzdwCjPFeiZI8TijIGZvcN6t+Hfr/PtaeMW/0joPo67HrgCELZbGwGdR0QM9rNmi8+/phvvXPGk08/4+jwENGaZ+dXrJPx9//4H/HsZk2offhaBUUsK0aUm82WEBZsdi2Lg2OOT08x1byuECeBpqtcRnLNB3LzEvk0eNZTvq/Xy9wtc2kzidP6p+dOlifP5rutKc0Cw1feEorvjDbNG3NmSERAPAa5lT4BBgzgGeh1HgNUR798LB4Ipl0LccvP//pDri/OiQ8OiG3H9c2aqlF2Cb79e99FlyusWSChQqPHKl0XiTGybVuW1YLrmxuq5oitCPfPHhBzK1BVBF/8o8hpoz690PR0vA6SyReu8HIKuYpeSdPLt7oo8+BzTFP2wBuTSPl8vc5ngTGmUqe3MA92DBi2sQ95xhV6Sxq3tsF9lWALcmt7DZNm/iiDmYH4/VUQ4rbj6sVLlircXF2z3WwJ9YIW6ESJGtCmoROhI/pjjwYhVNysr1gsVsTuBtGKbRdZnRzTddE9hviT75bZKyvDIsLYVZdW/zqaBp/g946/3yrHxd1PutWwgByD9XqdlCOAml8vT/B1XdfXN1fmLDBceF9F9PkcN7gxMDoGgV/zisc8lYrHn54nC4LhC1yvJqlq1NwnmRn1UrH1jr/+wV9h2zVJjGfPOkQrNi1cty1vvvs1Th+9QQqCBMEs5ec0BUxI+OqwBn/8sF4c8Pf/8HtsKjdg//sqnh0kR/bGLe94y3rkG8YpIiBF1lxQ/sDco0z7fYVb3oAZI7p6zWu0/l9PYuJ2tCGvqscnQL8+M6Y7gaGCT/5qLkz2xR0DA8mCUyrO8trQCsagKOfIjJJnKYMiH9vthu3FuW/Zw5CY2G4j29hh1Yrf+uCbvP/BB7RB2Wkk1IKZ+iYeCVjywaSIEqMRqoajBw+pmwU79eFnYOgOTKBTQNxYYWKckm+Uko9Jqow9hjei0spFhvWXPj/sbV0Azz9HpdyxjguVNwuPG2U5YPDkY5oFhs98JoTCsG8MUbel55l2JTIYu6RNRyWF+Z5xEa/Dz/ZJyAWDz2lYHpFEmmrBRz/8lBQTi1CRYstuF5F6iS6WfOt3f5eb6M+R1k2FaSLFDrLy/Qf5ku8kV8VUePDoIZ3lLW/qKyLqQtG/EEUBDH9rzojViSFy4l4eBATXWTFS8ZgqHstMja68HhjlfAy6KT9qIMnc83vmvmuD22XCHcCoFDpz20gAVYhigGLkTSuS9g0q2TXlxISh3EbireBJ8Lf55himn5ET90iCYhEiCSpBzNB2x5effsK9ZsnVxSVBA8uqJixX3Hv3HVIjtDuDuiKJIAZBGlKdEBLLygibyNGyIl53RBHe/Pq7sGggdS53btHOotGULi+737GL99nZfTLBATQiAQeDZMyYd1U+D5En7fp8Xsd+Ca6/YkgzQ/Lfq0jM9gLmwlsPzhmaBQYkN0o2ThJn0GfPvKA991MExe/JSUNipimSARQhia/eikjuunIZIoBk0ChRO6wzgiXuHRyQ1jtUhFAviJ0/BvD+N77GzWZNfXBAayAI5ecnTQUsYanl5OgQjQkJgaiKVBVWC5p/g9flhyJEz7llZYxEEbnDNLcSx95x8Ljlc6wfIfMwKaR4hN4zzNt1j1T8XSd7lIst3c+UZoFRWn7M300zsrOhAMpaCWR0l4pyi3Il3B4rT8FRyi1Am14H3/OgFVgy6qB89tFHdOst2hmLekECrK75zu//PY5P7/FifUOlQm0KOc4R83jJEi6YuUdYLJaEZoGq78ss2/y9UQy89N/dWns0x/NXodfeN+MxYN+YbpG5XAOp3e6SwMuBeT5mgREqBTMf3qn07nPYC7o/9+7JnjAA43aFgtyWVNwrlT5v/G4HM3+OtKoDFoztzZZGhS8//ZwGpetapK6o64aDhw946xtfY506Hpw94Hq9oQqCmhKyyzYDQqCRhh/+v38GZrRxy8N338l8GRrcu0xB8WsBY8YIX4Vul2OZ6YFExJMpArn+XkWayN3ViGxc1m2GZ4GxpwMpDO8HNeU9n+B6KK6tAEYYyhnodmCEuFcqdfXvDzXDDAShJRKCEkgsqobN1RUHoiyODtnEyA7j9/7wH5AqZdks+fzxYx6+8YgU8+MEYmCKYgRRFnXFxx9/xEm9oNvsODo68K2BdQXd8KD1PjiyIjPPY5qKBLey3KI593174sxBOqaxp/BvMzqdkCqjbX0DeVm3g164AxiqSsAfIRAFDRAo79dyJvy9liPKhi0KVMmroa9TkdxunX3/CYBRV4FokWVd8+nHH7OoKmzTsW43rB6cslwtaY4P2MaE7XY8evQQb/Ug6oGXYDQpYHQ8efw5f/qn/4SXnz1mVS+wxYKqrrnpOprgL6SVzNfgbp0XEelFmuYp5FK/Ru6Z6+OyzMyD5km+8TM85TGA4tHvoru7kqFBT2kWGP4TTK5QVcHEUDHSCHVzwacz7Enl/HV06622AD2K/RmJJInYbTlaLfnpsy8hGdGM5viQLzfX/PN//s/YxNZ/zywrLRcD5kYSEYIJqoHN9TVnD8/Q+6dsbjZ0saWLHfWiofLcfntRfv4u4h7DMkBKPVM5xfz4dUkQkCy7OBdT7ZRnbMGNWl7b8CqaKwecb/fMt++fBYYHYEYikYKAKmUBqLzBxcYQFFwQ8a7EzMfMJe+raDKiu0Wa/x0sF9TAl4+/4DAoLBqqe0f8i//4n/F8s6aSQBUcGJibzwGbjYcibUQscXlxzr/5yY95+/59ri6veOt3vkXdVOyA8rtkrnwjZODuA8NJxNNvbbDJx5jmJpGmNLRev1vhFsDMEgXoPvS93eKn52qGzix1OSjgNrd3AKOf4BIPCEXEu5QyB2Gyt9HDgPJuLXAEJnyyaI7GspY33O2R4UIbGZ4RiYkff/gjmqC06x3Lg0P+0T/+Yy62a8JqQb1L+DQRWZsCIpRteQB1U7NZX3F5fsGirnj+/DmWhOVqiZmxXDXIJMaY7qh2YHh5Iu5dpjKI2S3XfZcuxjR+FhWyuW4BYx8IKrI3QgTI1u5JxD3/lMwMbC70vAMYyScTnDM1/yqCkJlSn3sorkyDIqqYgCL507+D94v0wMnzIpmbaK4MRaBveV6uCGhQNts1z3/1K370r/8VJwcHiCpf+9Y3WJ0cELtEoEKq4htgeDLMqMQVkBIkqWjXW2S3w7oIEUwWLJanLOolKUUPhLOcRQWDdbwOE1z5VvQCSG7F5t3w+DXXbsx99c+57xB8VGbmQCogHM9SOisZmPnogSD5Uq+InCcP2cdpqkpsO5pmQdd1/bVC8zB2JGTl+NFPQImgAqF8V2X6Q3pDMZ5W7iMDieQeJWE+/azqHicroM8vLunRwZKQEv/Fv/yXfO/3v8ti0XD2xhlt10IyNGVQTDr3fWUIGirOX74kRV9pxRTTAHg3KZoVObpPVW8fyP6fZP3gLdi/jeSeobvSCwjK9T1QzJCMD5ucjzNNv6bs0WNeXJzQrMcIwYd2JmBqRGGY5MqKiIY/vicC+Zqy3weryODVcr6CRJMB3JKVaWL42/Twtml+XqGcnpzy4P4DLh+c88bb7/DOe+9xEY2GgOh+3+yfg7QGmLiXe/7yOarKzfWaRbXy3ApaPOMEHMXIhbxfH+Tay1eq7cvIeVSGkz16TZoBMnBg5g1pTOLsvJpGHqO0m7JOlGLsu84xzQKjCv66ABO8fxbziSvxCgQgAcFbUHJ1gWQj5HLGwCivfOyDzZK3c8aMHAsIiCgB73OtMz75xcfozZq/vvoJVV3x5NkLLNQo/iARyW6NbqyfgctgVbh6eUW7aVGpMFHvMjWg4utDFoBID4b5luppRcZe4UU+84BORtdSctCNaa5ssyEu68vJ+UrXM71NhFsB6i0a5Sm3m4Alf1GdzWzCmgWGiPf55ekrEwGRflZTEVQBEe9LzQdM7lEcM+DAQHzIKeIGKkjx75nhZO518Pijd8vZqN16w0//7Q9ZSOD3vvsPMK3YdR1d8oW8gGQPN9KalH+eZgY31zfsth1dNFarE9o2ZjkVFa8bRq1LvJsbkxtssMQUGDnTnuH3ro3orjSR/WFyoWngCa6/mWL2qXiMUV4RoYuRuq7oviowqqKk3EWAQZCiYwyjEg+OsIiCj6UNkFH8gYOlGLj3LIUE1ATUh7kJf49Du9twsFrR7jqef/GEX/zk51RWsV5v+Yu/+Cv0YIHUFRo7lnVNt9v1QALBTLLLFdo2slys2G53PHvyAqHCqNhtEyEsODk9AwRf+k4Tz+PzN2PyrgR6ZeAGA0MQRPBgvL8KzpOXU4AlMsRtPdgELPmSQBCXodynQfupgD2SMScDjcv1W4ZcYl5ekApJkXrSPcEdwAiVC2ZijodRawbc4Kp9CzVAUnJwFGEFV1Qus5yXyZiMIZwnzx8QEPXt+9cbdhdXfPjn3ydsfQQRQsOmTfzud/4uSQKhFjQIVSX4pgPxUk0wg7btWC5X3Fzf0O6MbmfUuuTew/c5Wh7w+WdPEBZ0LSg+uzr1ENPWOBcMjrfJibjMk9tcYFwH5Wr/ygOcX6D/HDyHJ/Sxz6Tk3uNOSPAqDUAFkdAHp4AHn1nvt8DGHcDwFp58n0RwBj19TAbmHkAEVEFFSPlcRBCzvltxm3krKWwUFZn5q6lVQDFIie16w5/9H/8nsm2xGIltQqua09MzPvj2d3jWXrE6aIhdyyIEdmnndRiYCYL6I4pd5P7pKT/561+QWsGsIYQFu1Y5Oj4DDazXHUpApKIqT2sVHqfImEmTyYqsQA+EQtPup3iNvmX3DSYDoZSVq/KR320jighln3ShkseBlfJgLVuigCMzqQx1jmkWGFVVQepQMSwo/ouCw+2CYDq8UaekmxQUukBi2bsAeUC5HwcAoomUSj7fUvfnf/b/8OLTx+iuo0bZdluWiwOSVnzw7e/Qpshy2SAYVahIXddvcvXRjIIpbduhUrHd7Dh/eUFqI0cHJ9RNxeZ6zWJ5TBs7NustIoEQhmX3u2hqGHAvUsiBIUznLVIaAOWf7uJFClA8n3+WfH4M36X3Mp7HwKY+hH6izCzPp5jbLGMBBCSlrKvbgTHcAYyUOkT8GQwUkiQq1WGntrmpFSFogOC7iqJF5zVDRUKC/PaZ/rYkuFAJMLq4Q7VCk2BdzcunL/niF0+pLbHQirRbgybWKXGz7ejqCm2MWjdgSogNYocIW5IlvEMzqiogpthOeHj/AZsXl75xMxxiuuTg5IC43RHX18Q2YRrRRiHGosIeBOP3eFb5ezkA6vxjOH5umKUMjEHjVR+7eB7A524EpruyQPCXvRk+2WxAIqiDcJzXLPnTaKIYhiX3Ah744/myrcrow5JPCYgIvmXmNjJmgYHkHVx4S06A4MgScAtrABEE8wold0E6VONdn989PGxT0pzqumG7aQm6JO7gk48eU2tD2ra0tiO2G6gapFrwR3/0R7z53rsYO4QONV97VFO89jx9bRBji1Chonz2yacECUhsaZo6D3HdQ6iYz2EoWZ48ErGxh3RS8a6QYpycx70EDG/28zmCPSqF5dLM3IcW7+H/y6ePtswz9PeQv3lc4DbyRI97zPI9QA9ufKuBQN+AYfQOrjtoFhhBPAIuQ7h+aOofjpbgtyZzYIio71mUogMhdRlgKpnxoZU5CbsWmuqQrhV++IMfcXO95WbdEiyRLLFaHtLRgDZ8/vgx3/zdD9jKDlP1uCYaKv4cq4ggBkkFS0JTVcQIf/mXf8n6ZkeipqrrDMtICELXtQRtXOFmvfGnT4+PuwHvslxOIbfOcVBqrqI9Kkbsz72cvrxcV68j8e9TuuUxcBBM9VvOU/I1pOkkVsk7VwfcAQwVB4Cpg8LAGRVvl3uKyYYvw1qzfC9QqT8p7qGzgRgenuYCCdTSELvA55885vzFhkYXIA0msN3uCEHZtMrXvvkuf/jv/UN8gcO7Nm8HhmoHiG9FLApQMBJ11RBUqUOgOTzGyMJVYO2OXbumqe/RhPygtDs4fCbHZRsvbqWUXBGWZTL6BqHqw15L4BoaqH/FYibB8w/A8HQznEdzXU4NF1SADAJnlAIMv3/Ib+ZBPZb5yXX5tXykvEwxoVlgjHTbIz/ldMmfZu72wAUsw1DwCl2pvnzv/WUEhmFdCRArFjx58oyPf/E5J8cP+fRXn/Lw0Xts1y+57Hasd1ua1THN6pCjo0O2dk1TV5TxjmjKa2a+Jz2Bb/5VJe06UvTfbzvfXvDg7B0iggalUsXSFizSNJX/InQGnRcCIkLwTt7lcc574Jt5YtGR4o0qZm83prmgVsR1NyXBy3dd7V9XdVD0XkbpGyuQZ1mztzB/jYWllMExLs3tAuYyT2gWGCEb2lS8G1EwwQMscHcb6ow4T/N3dYNheB8MghJjhwpoFfzlJFXNdtvlH68LfPb5Mz78wU9YrU54+fya+6dvcHK44OT99/n5zwLr9QVvvPkN3n77HepGaVsXJpm6y8d8uJZAREmxQ9RbewiB3aaFmGh3LWaCVBWo0HVb6FrqWjk88JXV1cGStPPHBwqV3zcxG35yHIrRnFLyp8hKHjeeXzcr09z+2RsUUPUlhUK+yumGLfUMQa2XNf4pCRFBUEh+TcTjozFvMUZ88i5Tbr9l+BuTz/5OaR4YJVD0GrFkiA79lIhQZuhEzFsfLoCZB3SWAI344oMBiVAJu11LXS0wq3j+7JIPf/DXHC1P2GwTR4enHB3ep+s23GwjzfIMrVbcP3ubqqnYxTXIzldGk7pSStkh0KWOxWJBSomUDA3K05dfgiUsRpBQZt+pmorNzY6gcHiwZFFXJEsEtV55ABrUAaHaz3EUEBSj1XVFjJGqym/ejYn1zTVXV1esVitOT0/9vmxMRnosJjHzzdc2SS/AKeAoVHQtDN6ADI7yMpcgzr+PQvbvTymCgD/0/hWBIepDnrLFTzAHiDjTlSgdYAaS/1QFkqO5tBD3OxEhT5snWNZLulapqyWffvQTjg9O+PSTJywP7nP64IAuCinVbDqItuL45B4Sah688QBjQ127QipZYAREI0hHbFvqpqbtdpgEd68GXesjkQcP7oMIVdMQaqDb0sYtIRiWOjdy8t9XG1NpfaV1l5Y5eIKhtZYjpUjX7TCLbDY3rNc1h4eHrs+RDQpG3GiGr00VjzKU6XX4PYOBcx68kDEP4++Azysl11tZgymveIQh35hmgWEp5Ukqf42SKLQxvwoQQQQq8QkuD8Z8ksq5z94iGT6fHnE/7649RR9pPP78GRcvr/js4yecnDzg8OiIUDVADRbQEOhi4N79N2jjFUfHB7TxCpFECDWWAlB+ngo6MbDEoln4opApIVQ0dWC9vkFDRV0viShmERXvMhdHByyXDZUKnfmLZMcUY6SusprEAZKSP+xdfggwdh0hVAjuoqvlkkrg6OCQp0+f5om+0oSG8suOOANfaCzXpQS57qnNvGGC20Yke2/x/CZehts3zz9lcq8CpVoRTyuxTfE8U5oFRjBXUkrmMWIWx5/oAkvm6ynRIIdeGRJev4GJkGzoX0kJUmJZBYIJLx5/wc35BZUecP/B2ySpaVNLqAKhDqyvtsTUYanj7XdWVNpRVwdcXn3Jg7MVbbsjmu92wqAJFckisd1iKRG7RL08RgNcXF1w7+QRajXLsGCzvWCxCJyniNWwOlyilqiTd4OQPYUKVVVGVpJHKBHF5xmIiZhcZskepd95Vjd00vHGw0c0TdMHsYxsYNFjE0HoJ7ny9ZDPxfBJRNyIaPBnb8xBKuLbHsrzOGNvVjxBktyVmDlAMljce/grEaY0CwwRn5pOJJLkcxn6PxUBc8+hybuYAjphkN1jEgMEwV9vpKI8efyYL5885fryiqOTryO6AMmBkwrb3YaTkyMuz5/RtTsODg7p4pYmCAeHB3RdC3h3Z3lyKwQliFCZYJawSthtt4hACILvYU1YaqkrwWJH2204Ol5w7/TEuyScXRGBrEdLibI5xuIA/KL0fCmnZ5AAiL8ctqqqvZ8JH1Pv6s1d/NSlS9HJKH2ab9riy/cS/5TzcZALw32li5zSLDBUFcwVHzQLoD4DMRY8Wumn6F0TMgBj/CNzAkiqiJ3x/e//FdeXLTHC0fEplhQToa4bEKGNkavLc1SNxaLi/OVz3nv/t1lvLjASkYQvbYt3JeYTVf2DS3jwvFouOXtwxve+9wd8+fQl292G7W7Hwapmu7vB5z+Cj5R2O5rGf8c1Wx4BIkYZArrgeL1k2cT6RoGVayDieuy6Lnc1t2MXEW/dpTXPGYiJ4b3szAhuYCF7GMyVLzmPuDGSebfUH8nw3eagCNP1K7gDGC5pKSi7piww5uNjzQ/yJEofJn3zGfTk8UfRqErg8y+esb5pef7skrMH76JhBdqUwQVYohLjp7/8Ge+98ybQ8sEHX2e7WVMFpW5WbHfXDL+MkI0oOoATemMeHa04Pj7i+PiYP/vzD3n06BFte0UIG/74j/+A7eaS2G0J4m/p67qdFyDgL5V3OT3wzoWbe0M3kGBM+mmz7GnUfypDPS4ZUwGEyBAv3DU7We7tG1muuy/DyrmDIHY+xO4BlOvB8NjPfJq8xDGkEe+ZZoEh4KgSZ84fmQeKApIRELrc1xqOiWyrniz3v5b/dTFyfbnh6nJNSgrUhGqBVg1d12EGu801280V7eaKB/e/iWokpZZmKcQU2W47QlWBDQoa1Qg55lkul1xf3VDXDdfXV7z55gP+xX/2H/LDDz/k5OQhb5ydYUS69h4pdYhB7HzDTylJyDvUoA/GzazgfM9APkT2mEHVA/OSXgAwpZIu4l3GlFT3p79FPCgtRu+B0XPt+er8btJx/eW80JT3Kc0CQxEIgRoD8c3AHuQkzPBgJ7WQK/IlbzBL3t0UxaVEXQW6GEm4x/j5L37J1dUasQNOTx+RVGk7N4wKrJqaZ0+ec3RYk9INb7z5iEqTl6WKWcCKcvIfuDuUHoVKu9nRVBVY4uhgQYpbLq+uee9rDwkIMV477yqo+vyD/5KAz39YMgeHCKigou5BgDB6cWuaTnrZ4NrBFwlj3F+xFRGfhBsZF/FHB8r2AfARkYjPvpbfGgGDZPimaXO9qQPGzJfZ293OX36fvOGWeopnSmbE0eaiWwt+3AEMwF17MXBJQ0BKxOwVFpda0KiC8w4sav/d06AVYspHH33CbhM5WB2zWDxAtKHDDVAH/f/aO7clW46jDH9Z1b3WzD5IW7IOtoQAgyO4Ae4cAQ/AG8Cz8gB+AwcRRBjfECCwkSWhw94za3VXJhd/ZnfP7FHgB1AqlmbtXt1VWZl/HiqrupsWg8v9t9x9/wc+/tl7NO746MPnTNMF7QQHqm9acQQEhmNoxTdcPOp8R1AOPCToGouFeCXA6ktADL2z1Ux5VPWjCctDBZelH2UQof9ZyuZo+f8fHa33eE1ZttkOAjNVSCN066K78/r1ayJie/nfMQxVe3Xdsd3H9CQwLFBMjRKD/gaVrAA4BOhRi4GTQsnzGygErYN+nlmWwRf/8yXffvM9zZ7z6tUHrGvAuROxYi3o4bz+/mt83PHTj3/O6Raev+yYOZHeSrmEksQSPNtvhtb9xXUTE+LLQi+lMcBDe01Np0aQj6vURh29n1U7O6Zp0knpAYgEFGqqt9yfsR2BqWk7QESosJQxH9SX5Zk6Rx/Q2CL23KPO1YV1vto0lOd0a6xjEDEwNG1vrSkViJDXJMvtoetgf9xEuMMTwHjbhzxFyVRDiqglaVnDxjpwGAjq1NeVdVk5zzO//+/fsV4HH374Mef5ltN8izGYp8Y0Gff33/PtN1/x8z/7lPNN4xe/+FPGuCcYuI9NaMABFA+/Q4YUJMQIeYsIV5Im/W/t1MlV5R3rqpcFVz8YDfmn+ugSebBaIa2m6rcS2tsyyt+e+N67vJzGk3+bYQ2sqZ26W67C97Jc97EgzwG6NkIvPt5AcJBd6a/3LvA/orePAG0yCRJtBu7NWJcFrw0Zlu7RZGlm6Wrr+qxwGidubyeu1yu/+6/P6Q5xXWAd9LOYO7fB/d0dfpqIuHC5vubm5ft8+dXv+evbPwdWep8xcyhg5udI5UUCLcHvDBmEYUy0kCLqlZo11QgPIhoeg/DcpeVaf2kAAS0OYzbHV+UkmGM0IlQkUtgYAmRAmNEnFaV6n9geWEcQQ2GuDI4Yev7ZovWlPk0M0ls20MsiDcchQd+miQi4rtdNLm5Z6+gCg6c36b3CkL6rHsQfD4wKCwAtoNbrW7DtFM/xcUThRiHLXtZ7zvOZqc98+81rvv7qO95590PO5+e0PrESXO7ueP/VS77//ju+/e5/uXl+5nye+Zu/+ls6QcTAR+U0h752FhECyk2CMhx2JtMx1kPQILI9nWMJHqLhvlcBa4YB6sHHgGZgsmJQo+B6IQAAENBJREFUG2ah8BshJYYLSDqV8IEREA6VNFoDlBzWYCrZJCuV7oPYfHrA1l72g8ABD4tgBZDdK6Ix6qv4TIMGFE4e0ZPAkOAci8AblOAfnHEERAR7DA4IiFjpffDm7p7rxfn6q+9Zxsz773wIpxvW3hkBL56/5JtvvuF8nvnyyy/45JNXvHr1ArOVy/U1L1+eua5DvZtlQUtufKesNQRIQxBi4nhSjiKAHUR1zPJzHJeZYrGZvIWUlgn3ATCGugXEm4MZOYtQQmlmCq2VOG7i2nn09FK95yptOAIs5KDEC6ofbcdRnalIwJEOyztGAuU4fa26yZGHoqeBEQrEgUvObhIaB4hEoUzCMh09MDTo0xWzlW+/ec0Xf/iK8+27tNMLRjsRBGOCaV1579Urfvvbf6V359W7z/nJT57z6t1bpj5YljdM8y3DUxCJ7m1/ZVI910LgkJd7PGBZiAS5HYMNFIbiLkhYJcjyHLJCdFtFnedCwba41Rp05J2Kh/wbyOs87qOogFhTVktWI2ps+/kNg2abGqrN/AcgFUVE6kdjV9gUAOuelcd5IvwQMABC7tFBug8JsdBhwe6pH5GYD3xc+eijD/Fx4sWLF9BuOJ1vsfnEQmDN6A1ev/6OeWq89+oFH338ik//5GO+/PJz3n33Fu336Bg72qXMBz3SyJJw0mbBB9r4r98ks21sRuUIOqFAIUBk/yCF5DmlrAiBqrWWCtXCVh0v3iP2Ba4jKKqtWtBq6Rk3JR94MpM3MzMww30vp0doJlXnm2XybEaEES2IMJo1vPKixzemUMH3EVmk8E2JZ2+SnmJmQHgKNGTBrrDTUIMxBoKy8fXXXzNNnb/7+1/SZ+iTY5Yu1Z2xXMCvfP31Fzx/ceLZ7cTl7jUvXzzD3JlaZx0LwxeCgce6/R2+4LHiobcJjLHiXjMYxfrj90i+W2b4knl6uPytwLBZbSrmONe3kMXGcLo1ujXmPtEwxqK1keNqJyjBq3ZLiWPo2aQFlJohTNOE6hMh7xSqyzQ0PcV1HA8oXQFE4GMw1lX5UAThNfaH3qmA6u45PX9IT3oMi0qWApXDjWYhDxGBhKn0R8LL5WZkBUrAAvfO9bpwmmb6tPDuOxC8xh1u5ucsaxB+x29+8y+8eDHz3nu3fPLpB5hdaOFgYEzJh3hrGL7mSmiSmUFfN2vfPItZ8psKDlDSJ8vScAIVxxwPtEsrlQmPAJFAiUhLDimiLLQsOIZAf6R1UaWxt1Qsu+cA9VMeZlmW7bjBFq5aaw8dnju5LwIloQLtVsYnsKbwtSXV7pKnGfLDoDDzkJ4EhpSr7iNCAgXFJyT4bbOrKX61lkqIQA/iaES7pVmnNZjmC3/5Fx/wb7/9A/Op4eNE48y3r7/i9tY438Ann35AY9BMIGs0zBpTM0YKrixRXe8utSyiPpC8H/5uSn30235NQHSGq5+y7OO19bes390f7GeQQhMkBzryaqbxFDBqTNVfAXvzGodPhZKH/O/jqes3YGV/WPEmOibVx2uLngQGCHlBUEuyw7Xe4ZGxM/s4NlxMREixa3TWdXBz7tzffcunn76C6Pz61//OzW1wc/sTlus3GHd8+MEnvP/qGc2GLNgQNKLpyTlAN6PeBFjKqcGB4rgBepTkLkwzgdYMSjaWbRgIDx6EwTpWlnXd2j8K7Rhiyu0fhX0c/9HTgK4tYLfWsC7e3RVWCwSPlV59VZvb9XWeBkJEjS3lcOCLSNCTIEFy2T3WHwmMy3qRwHtDZTdojS3pskiBTx0M3HKXdHoTDcxwXzifO9f1yjSfeXP/hp9+8pLP/vSX/Md//p5f/eqfMRZe3nR+9kHntl+ZUnlmhrGy1Rmkwv23gwB9ON4UekBKkMLl6rf7JtaFeZ5zJXe3SCln4NaYWqdNE3d3d1zWdVO+mRK4jrrpAGMwJ1DqjnczI/xhAhgRWjPqmopGBL4OVLSDjsFwGjDWVblaU3iuAmJ5pt47kW26Kyw0l4SE8MyfMBm2p+5MWxDHGATONE+4r4zhT+HiaWDU/NazkOKg6XSQZRVwk3Bq8OWa6t9mYC2EZgdQ2fu63HFd7vjo41v+8Z/+AVudzz//nHfeeYdnNxNmCbrSsskbHLkPULvb37dHVryU1UfEXnvI8R0VJ3L0WJ2dShmVNBZQytrM9lpHKauOgdqOkOWX0dR1dU19dgsWbeCu37ON3ve1GNxTRnVRtpf/1OtFBNZAj9820652MyXiT9GTwKipaETgw7d3hA0Dt3RvgZAS6jzyBTCtVbXQtoRRyZBhBlOf0JpAAwLM+eyzz+gZImBXHEDEo4HrIEEgfUoI5bpLAdXGMU7X9v7WtEmljh/JDAyNo8LGcaZQAAHJ5+h9ytX3PmEpv2q/+Kr+j2AowBXAiuqcGtvxvIhQotxaltZ3ing7JBVvNZbio3h5TE8Cw4cqjdEMmhTs5CBNlhcIQNtgo9H6vm1f0z+joFvCLMEehXB7e7sNtpQGKRig1kmKSmAPBs4gQqc1a1kj6VjTvx2nNbn8xwKvdpo6o1mCOYLeJ+ZZwtSN2eKjhA9S+hiaeqrdQatV12y7+gJ51+P3McY2EzmCbluKKLCEQuNY9hyoHWRctO8EMyA9VI4n3FmXBatfEzCP6QeA4WU6GLqPZMmFIYwUtukcdsEeyd3FzEF4NZdfcwVznmemrjvUpkmsXC4XbTLJNjU0tv+LQryw9+2reAO0vhBGYFhoFRIPrD9MSp/iGzRmw2jWtF+zNWzSVLNtOdfDsHS9aktggQT2MAE7kMqSC6Ct7Ql0gae8S11TS/s65swZzsbQop/VwJOM7IdA1SXxW0k51DI8hCsqPKYngbFbsxJK3BlEgqJJUOk6w7XCV26p0KpKm/YWmknQvqzQGg24mU8abHqWSt6Oy8YlIFIoR2opmEJ79adPAbtlkqfEcVmWzXU+dqGliBH6Xoq/vb2lNbnw1hrDlWWVQj0t7jgGuftKwvexFFV75SXrvGNbR8+xLAvumVvkuKu/0zyzrRYnFYhgB+5j+VX/AKfT6cFv8APAwD2nqUJcGLLGlth0GCOnkInO3sR0oa+3BjklMzvMIA4M1vHHAjyeL3LIohns1ievkTlD7FZcbdbASzhteqigYx/bOZF8NO3bbI8+YUbt/6xrKj86zmAi9srmsc+iAuJRLsc2xxgY0FuHAMtPFfda79rytw79drjW0qsVRcQDfwvZ31Y5ffzrDwBjizmtEeGZayhuW6C45EJt5Qw1yE3YriJYWdZGsWfujxfCjpZ6RHzDkONS+0Y6BA8NjuzX9qRxA+CBp3VVkqjD2dYDgRq1X+ItvpOa2fb0vCOwjorW8f3a43lFlrzWb+pb3x+3fSSz/Qah0+mkxPPQBihMHI3k+FvRUWd17pGeBEYJNQBMsbqZkf5iK/eWUCMq/u0JWUQQWfc4ZvLuSlbr2tb7rry6Ns+BhwqqgTzu1yKYzzdcr1fGqpuLIfmPtJaAyEfwmxnhTuR3AyXUUaBLGzJZPsdPgmIMrUWYNc12YlfuukhxvXd6Uw71Nim5PMoMZJSlrGZGzvgh5M0igskaFrDcX1jXlWe3t5tcI3RBtRgRW9tHiohNj+rgIT0JjEHlGIGvwbBgYqZP4EvIjfWJQANpbV+WPjIYIeEcjx/du5nRLLAI3IJR+y6ANZ8Tfjqf8LTi3mAMR7vDOmO9Zr8wG3pgfTOWy72Ot8b95ZIPOp1ppxlDnqeZ0SctfBUQPQLPHeNHYIYVAI3WOkZjzvPWVY9d6JZJZ0TuZs9x+cD87ax/uOfTisS/WYWTkk2el5Wj1VeoZ60a26zrfJ4zfO/o1bUCnBYMldhWjlVe05OvSuSP9CQwNkokqR4R+KqyuPUmRKaVWHoUYMvaw+Qx1IwEW4ApUJhZxjnwVSuCZsYYDq4M3FftT6i6ChGKqcitS05KLCspK6X2VFC4c39/zxSOcd69UP6mdjWW1pRwV8vrGHRA1cRGDzDS0tGD2TbrS/5IniJj+D593CmaPGjJkeyz9pBGsF0bqJ9+MD6yfxDfR6pxqJ0CSHsw26vzHl9b9CQwlOFDSFrqwPWEPeudNhq6AyyZMIFDVIIwJWlk/M1YaKAlZDMsVAKOCO7v77fYeATPcSW1ABah4k7D0P0esHrmQpieu9mMZV35/u4NoLj7zIy5T9iEagSRs4v8r6q7gdFM5f65cqjMb8YYW0Gptc48TyzLSoSzP6zVVM7OsPCU8AtYBEQorNW9rpAhd7jGmAXB1qSX1VMO8u2bx5DOc2f7BjYIlxfpLddr0tjq4Sl/9Cu8uzU9LshDD4AtZZFWWNZPIr41CVScbWQRmDuMQd3qB43eTAIZenrNslwhHMJ58/oNZsY0zzQz3AcnzmBqX54n8O4afIQGPs9bbjGlHtZ1MJ/PnE4n7u/vILQLvGX79Uak4ttJIeYwDGOsA9ru8cwMrUfIa/rwDdwFAi+QmREEjx+7BGBBVhjSsMyYWkPrUJLd1BoENFQiGEOhZmodsrZBKLQfSXyI/9LbNqYAPXhGazME4G/z9yQwQAqvXNUCBoj53vWsjARGWLpMQfQhuQMNkrkSQDODVPKyXqU0ZNVv3rzOWkYmYD6Y5xOEBhye7r8+mkQSyN0DtNa0+cTgfHPmfD5zuVxUNcx8o6xzB5vTAt1glEAxM4W35L1PEyCrfZxQPzQKGdOUu7K3Wd6Bmku+5fIlF1l0kY5LF4Z4mSZVYs2U06yrHvpypNb2nA/Y5B8RkDwvy34n4fb3QE8CYyzZmRlW6Ai5uojgNM+MRDrs09saoFnG6nCWe736uHfdUqD6RjbozrpcGUOV0Mvlku7SWVeViJ8/f8HNzc2D+yNKIVUMwyS68iC+6pZHkHUtlyvPzjdcuXC9XHj+7Nnm+UDXNDMwY0a3A3oCb3uEdMgjRIDRZC0oXJwmyaU8ihOy7qa3COnyPTxKcWi6HVJ8uINpdddMll79F4Dnrhmcr6oUdzNGyLNUQlnhK8aeyFfF8yi/uWu9xN1p/W0YvH2EtOzeMw47PgJrmReY1kQMJUUgQJRbSxXJW4yBZWHKR7ph69rhlIyOdWW5aNoVY+ghI13Caa1xmqcH7Sq8OIbC2qbAaZI3id0K3J0JI1rHLAhr3F2uMJwpER8RmDgGjHCnmzJ+OAg62yPAJi2mLcvyoC5SZOQEIpVGkHkCUOAIIGVjwDTr7Yhl5QGENRqW4DGF+DE4nVU1Hutg6n2rBxX43qIIPLccTtNEM+UV5pF8vE1PAqNck5nhHjjOeZ4lhGZ0MyIMTMwchbL/O2DVE/vG8G3HEgmQAoY8xkLvjdYmTqeJm5sbzuezrKJPLJnsFfWu+Hq96iabedaUzQAfablADxTfI7YFqWfPnnE66UZjOIAaKXRkCb0+c89ZRwRurmpoy1wgrbKl0RRfHsHqTjPjNJ8w0/qQAZFKbgA5g2utMWU/xY+HvNiU4ABorQvQmdf01rDWCcSfIcN9nNMIjw2aqqWNnPmFQPkUPQkMELM1TfQIJYPJxJbFBpBCAwl5p8A9N5ZkaJAn0Cql8oHG5J3b8w03NzcS0DSp5tAUJzHdm1lUgovYK3buzljzRt6A9aq1haOCAaY+8fz5883K69qjIcyH38wU10HC7WYYmnG4+8azQuDuzk9NyfgYgymTxJ7uejOh5K/GaRgkn4HAIwnJY4BCQoW5Cl/LumrJAvFbbT6gNZfYLfOSoXoLqbe3zgcsSqs/0o90oLeh8iP9SPwIjB/pB+j/ALx2hnBBVrH0AAAAAElFTkSuQmCC;" parent="1" vertex="1">
          <mxGeometry x="-110" y="123.5" width="134" height="133" as="geometry" />
        </mxCell>
        <mxCell id="Mq1jqRj8me7Z0p1k6pqm-3" value="" style="endArrow=classic;html=1;rounded=0;entryX=0;entryY=0.5;entryDx=0;entryDy=0;" parent="1" source="Mq1jqRj8me7Z0p1k6pqm-2" target="ljewHxEcHpymSgs0MfJS-1" edge="1">
          <mxGeometry width="50" height="50" relative="1" as="geometry">
            <mxPoint x="-10" y="240" as="sourcePoint" />
            <mxPoint x="40" y="190" as="targetPoint" />
          </mxGeometry>
        </mxCell>
        <mxCell id="M7D5lyLpoFJ9LOZT882y-6" style="edgeStyle=orthogonalEdgeStyle;rounded=0;orthogonalLoop=1;jettySize=auto;html=1;" edge="1" parent="1" source="Mq1jqRj8me7Z0p1k6pqm-5" target="ljewHxEcHpymSgs0MfJS-26">
          <mxGeometry relative="1" as="geometry" />
        </mxCell>
        <mxCell id="Mq1jqRj8me7Z0p1k6pqm-5" value="" style="rounded=1;whiteSpace=wrap;html=1;" parent="1" vertex="1">
          <mxGeometry x="-118" y="285" width="150" height="120" as="geometry" />
        </mxCell>
        <mxCell id="Mq1jqRj8me7Z0p1k6pqm-6" value="User tags" style="text;html=1;align=center;verticalAlign=middle;whiteSpace=wrap;rounded=0;" parent="1" vertex="1">
          <mxGeometry x="-95" y="290" width="60" height="30" as="geometry" />
        </mxCell>
        <mxCell id="Mq1jqRj8me7Z0p1k6pqm-7" value="diving, scuba" style="text;html=1;align=center;verticalAlign=middle;whiteSpace=wrap;rounded=0;" parent="1" vertex="1">
          <mxGeometry x="-140" y="320" width="150" height="80" as="geometry" />
        </mxCell>
        <mxCell id="Mq1jqRj8me7Z0p1k6pqm-19" style="edgeStyle=orthogonalEdgeStyle;rounded=0;orthogonalLoop=1;jettySize=auto;html=1;entryX=0;entryY=0.5;entryDx=0;entryDy=0;" parent="1" source="Mq1jqRj8me7Z0p1k6pqm-9" target="Mq1jqRj8me7Z0p1k6pqm-17" edge="1">
          <mxGeometry relative="1" as="geometry" />
        </mxCell>
        <mxCell id="Mq1jqRj8me7Z0p1k6pqm-9" value="" style="rounded=1;whiteSpace=wrap;html=1;" parent="1" vertex="1">
          <mxGeometry x="870" y="130" width="150" height="120" as="geometry" />
        </mxCell>
        <mxCell id="Mq1jqRj8me7Z0p1k6pqm-10" value="Labeling" style="text;html=1;align=center;verticalAlign=middle;whiteSpace=wrap;rounded=0;" parent="1" vertex="1">
          <mxGeometry x="915" y="130" width="60" height="30" as="geometry" />
        </mxCell>
        <mxCell id="Mq1jqRj8me7Z0p1k6pqm-11" value="coral, ocean,&amp;nbsp;&lt;div&gt;person, water, ...&lt;/div&gt;" style="text;html=1;align=center;verticalAlign=middle;whiteSpace=wrap;rounded=0;" parent="1" vertex="1">
          <mxGeometry x="870" y="160" width="150" height="80" as="geometry" />
        </mxCell>
        <mxCell id="Mq1jqRj8me7Z0p1k6pqm-12" value="" style="endArrow=classic;html=1;rounded=0;" parent="1" source="ljewHxEcHpymSgs0MfJS-51" target="Mq1jqRj8me7Z0p1k6pqm-9" edge="1">
          <mxGeometry width="50" height="50" relative="1" as="geometry">
            <mxPoint x="790" y="230" as="sourcePoint" />
            <mxPoint x="840" y="180" as="targetPoint" />
          </mxGeometry>
        </mxCell>
        <mxCell id="Mq1jqRj8me7Z0p1k6pqm-13" value="4" style="rounded=0;whiteSpace=wrap;html=1;rotation=90;" parent="1" vertex="1">
          <mxGeometry x="940" y="342.5" width="70" height="25" as="geometry" />
        </mxCell>
        <mxCell id="Mq1jqRj8me7Z0p1k6pqm-14" value="" style="endArrow=classic;html=1;rounded=0;" parent="1" source="ljewHxEcHpymSgs0MfJS-66" target="Mq1jqRj8me7Z0p1k6pqm-13" edge="1">
          <mxGeometry width="50" height="50" relative="1" as="geometry">
            <mxPoint x="920" y="400" as="sourcePoint" />
            <mxPoint x="970" y="350" as="targetPoint" />
          </mxGeometry>
        </mxCell>
        <mxCell id="Mq1jqRj8me7Z0p1k6pqm-15" value="" style="rounded=1;whiteSpace=wrap;html=1;" parent="1" vertex="1">
          <mxGeometry x="1080" y="204.5" width="150" height="120" as="geometry" />
        </mxCell>
        <mxCell id="Mq1jqRj8me7Z0p1k6pqm-16" value="Final anotation" style="text;html=1;align=center;verticalAlign=middle;whiteSpace=wrap;rounded=0;" parent="1" vertex="1">
          <mxGeometry x="1125" y="204.5" width="60" height="30" as="geometry" />
        </mxCell>
        <mxCell id="Mq1jqRj8me7Z0p1k6pqm-17" value="coral, ocean,&amp;nbsp;&lt;div&gt;person, water&lt;/div&gt;" style="text;html=1;align=center;verticalAlign=middle;whiteSpace=wrap;rounded=0;" parent="1" vertex="1">
          <mxGeometry x="1080" y="234.5" width="150" height="80" as="geometry" />
        </mxCell>
        <mxCell id="M7D5lyLpoFJ9LOZT882y-1" value="sigmoid" style="rounded=0;whiteSpace=wrap;html=1;rotation=90;" vertex="1" parent="1">
          <mxGeometry x="380" y="342.5" width="70" height="25" as="geometry" />
        </mxCell>
        <mxCell id="M7D5lyLpoFJ9LOZT882y-4" style="edgeStyle=orthogonalEdgeStyle;rounded=0;orthogonalLoop=1;jettySize=auto;html=1;" edge="1" parent="1" source="M7D5lyLpoFJ9LOZT882y-2" target="M7D5lyLpoFJ9LOZT882y-1">
          <mxGeometry relative="1" as="geometry" />
        </mxCell>
        <mxCell id="M7D5lyLpoFJ9LOZT882y-2" value="fc 81" style="rounded=0;whiteSpace=wrap;html=1;rotation=90;" vertex="1" parent="1">
          <mxGeometry x="320" y="342.5" width="70" height="25" as="geometry" />
        </mxCell>
      </root>
    </mxGraphModel>
  </diagram>
</mxfile>
